MutatorSansInstance_200-700.ufo
<glyph name="comma" format="2">
  <advance width="262"/>
  <unicode hex="002C"/>
  <outline>
    <contour>
      <point x="171" y="0" type="line"/>
      <point x="171" y="212" type="line"/>
      <point x="93" y="212" type="line"/>
      <point x="93" y="0" type="line"/>
      <point x="134" y="-10" type="line"/>
      <point x="124" y="12" type="line"/>
      <point x="102" y="-103" type="line"/>
      <point x="126" y="-105" type="line"/>
    </contour>
  </outline>
</glyph>
<glyph name="period" format="2">
  <advance width="262"/>
  <unicode hex="002E"/>
  <outline>
    <contour>
      <point x="92" y="0" type="line"/>
      <point x="170" y="0" type="line"/>
      <point x="170" y="212" type="line"/>
      <point x="92" y="212" type="line"/>
    </contour>
  </outline>
</glyph>
<glyph name="A" format="2">
  <advance width="993"/>
  <unicode hex="0041"/>
  <outline>
    <contour>
      <point x="42" y="0" type="line"/>
      <point x="138" y="0" type="line"/>
      <point x="504" y="720" type="line"/>
      <point x="420" y="720" type="line"/>
    </contour>
    <contour>
      <point x="197" y="189" type="line"/>
      <point x="779" y="189" type="line"/>
      <point x="779" y="258" type="line"/>
      <point x="197" y="258" type="line"/>
    </contour>
    <contour>
      <point x="829" y="0" type="line"/>
      <point x="956" y="0" type="line"/>
      <point x="578" y="720" type="line"/>
      <point x="459" y="720" type="line"/>
    </contour>
    <contour>
      <point x="434" y="638" type="line"/>
      <point x="554" y="638" type="line"/>
      <point x="554" y="720" type="line"/>
      <point x="434" y="720" type="line"/>
    </contour>
  </outline>
</glyph>
<glyph name="B" format="2">
  <advance width="988"/>
  <unicode hex="0042"/>
  <outline>
    <contour>
      <point x="92" y="0" type="line"/>
      <point x="201" y="0" type="line"/>
      <point x="201" y="720" type="line"/>
      <point x="92" y="720" type="line"/>
    </contour>
    <contour>
      <point x="177" y="334" type="line"/>
      <point x="673" y="334" type="line" smooth="yes"/>
      <point x="773" y="334"/>
      <point x="821" y="282"/>
      <point x="821" y="204" type="curve" smooth="yes"/>
      <point x="821" y="126"/>
      <point x="772" y="76"/>
      <point x="671" y="76" type="curve" smooth="yes"/>
      <point x="177" y="76" type="line"/>
      <point x="177" y="0" type="line"/>
      <point x="690" y="0" type="line" smooth="yes"/>
      <point x="868" y="0"/>
      <point x="930" y="84"/>
      <point x="930" y="192" type="curve" smooth="yes"/>
      <point x="930" y="290"/>
      <point x="876" y="362"/>
      <point x="760" y="377" type="curve"/>
      <point x="749" y="353" type="line"/>
      <point x="838" y="374"/>
      <point x="887" y="440"/>
      <point x="887" y="526" type="curve" smooth="yes"/>
      <point x="887" y="637"/>
      <point x="825" y="720"/>
      <point x="645" y="720" type="curve" smooth="yes"/>
      <point x="177" y="720" type="line"/>
      <point x="177" y="646" type="line"/>
      <point x="630" y="646" type="line" smooth="yes"/>
      <point x="734" y="646"/>
      <point x="779" y="595"/>
      <point x="779" y="519" type="curve" smooth="yes"/>
      <point x="779" y="440"/>
      <point x="730" y="390"/>
      <point x="630" y="390" type="curve" smooth="yes"/>
      <point x="177" y="390" type="line"/>
    </contour>
  </outline>
</glyph>
<glyph name="C" format="2">
  <advance width="1091"/>
  <unicode hex="0043"/>
  <outline>
    <contour>
      <point x="918" y="292" type="line"/>
      <point x="891" y="135"/>
      <point x="762" y="72"/>
      <point x="571" y="72" type="curve" smooth="yes"/>
      <point x="527" y="72" type="line" smooth="yes"/>
      <point x="312" y="72"/>
      <point x="175" y="154"/>
      <point x="175" y="362" type="curve" smooth="yes"/>
      <point x="175" y="569"/>
      <point x="312" y="648"/>
      <point x="527" y="648" type="curve" smooth="yes"/>
      <point x="571" y="648" type="line" smooth="yes"/>
      <point x="761" y="648"/>
      <point x="888" y="588"/>
      <point x="918" y="435" type="curve"/>
      <point x="1027" y="447" type="line"/>
      <point x="991" y="642"/>
      <point x="825" y="730"/>
      <point x="579" y="730" type="curve" smooth="yes"/>
      <point x="519" y="730" type="line" smooth="yes"/>
      <point x="239" y="730"/>
      <point x="64" y="617"/>
      <point x="64" y="362" type="curve" smooth="yes"/>
      <point x="64" y="106"/>
      <point x="239" y="-10"/>
      <point x="519" y="-10" type="curve" smooth="yes"/>
      <point x="579" y="-10" type="line" smooth="yes"/>
      <point x="827" y="-10"/>
      <point x="993" y="81"/>
      <point x="1028" y="280" type="curve"/>
    </contour>
  </outline>
</glyph>
<glyph name="D" format="2">
  <advance width="998"/>
  <unicode hex="0044"/>
  <outline>
    <contour>
      <point x="92" y="0" type="line"/>
      <point x="200" y="0" type="line"/>
      <point x="200" y="720" type="line"/>
      <point x="92" y="720" type="line"/>
    </contour>
    <contour>
      <point x="175" y="640" type="line"/>
      <point x="461" y="640" type="line" smooth="yes"/>
      <point x="682" y="640"/>
      <point x="823" y="569"/>
      <point x="823" y="362" type="curve" smooth="yes"/>
      <point x="823" y="154"/>
      <point x="682" y="80"/>
      <point x="461" y="80" type="curve" smooth="yes"/>
      <point x="175" y="80" type="line"/>
      <point x="175" y="0" type="line"/>
      <point x="469" y="0" type="line" smooth="yes"/>
      <point x="753" y="0"/>
      <point x="934" y="107"/>
      <point x="934" y="362" type="curve" smooth="yes"/>
      <point x="934" y="616"/>
      <point x="753" y="720"/>
      <point x="469" y="720" type="curve" smooth="yes"/>
      <point x="175" y="720" type="line"/>
    </contour>
  </outline>
</glyph>
<glyph name="E" format="2">
  <advance width="913"/>
  <unicode hex="0045"/>
  <anchor x="448" y="765" name="top"/>
  <outline>
    <contour>
      <point x="92" y="0" type="line"/>
      <point x="201" y="0" type="line"/>
      <point x="201" y="720" type="line"/>
      <point x="92" y="720" type="line"/>
    </contour>
    <contour>
      <point x="126" y="637" type="line"/>
      <point x="826" y="637" type="line"/>
      <point x="826" y="720" type="line"/>
      <point x="126" y="720" type="line"/>
    </contour>
    <contour>
      <point x="126" y="0" type="line"/>
      <point x="826" y="0" type="line"/>
      <point x="826" y="83" type="line"/>
      <point x="126" y="83" type="line"/>
    </contour>
    <contour>
      <point x="126" y="330" type="line"/>
      <point x="722" y="330" type="line"/>
      <point x="722" y="393" type="line"/>
      <point x="126" y="393" type="line"/>
    </contour>
  </outline>
</glyph>
<glyph name="F" format="2">
  <advance width="943"/>
  <unicode hex="0046"/>
  <outline>
    <contour>
      <point x="92" y="0" type="line"/>
      <point x="202" y="0" type="line"/>
      <point x="202" y="720" type="line"/>
      <point x="92" y="720" type="line"/>
    </contour>
    <contour>
      <point x="126" y="638" type="line"/>
      <point x="851" y="638" type="line"/>
      <point x="851" y="720" type="line"/>
      <point x="126" y="720" type="line"/>
    </contour>
    <contour>
      <point x="126" y="289" type="line"/>
      <point x="818" y="289" type="line"/>
      <point x="818" y="363" type="line"/>
      <point x="126" y="363" type="line"/>
    </contour>
  </outline>
</glyph>
<glyph name="G" format="2">
  <advance width="1138"/>
  <unicode hex="0047"/>
  <outline>
    <contour>
      <point x="438" y="302" type="line"/>
      <point x="949" y="302" type="line"/>
      <point x="949" y="216" type="line"/>
      <point x="995" y="0" type="line"/>
      <point x="1053" y="0" type="line"/>
      <point x="1053" y="349" type="line"/>
      <point x="438" y="349" type="line"/>
    </contour>
    <contour>
      <point x="948" y="298" type="line"/>
      <point x="920" y="136"/>
      <point x="791" y="72"/>
      <point x="599" y="72" type="curve" smooth="yes"/>
      <point x="527" y="72" type="line" smooth="yes"/>
      <point x="312" y="72"/>
      <point x="175" y="154"/>
      <point x="175" y="362" type="curve" smooth="yes"/>
      <point x="175" y="569"/>
      <point x="314" y="648"/>
      <point x="530" y="648" type="curve" smooth="yes"/>
      <point x="602" y="648" type="line" smooth="yes"/>
      <point x="792" y="648"/>
      <point x="918" y="588"/>
      <point x="947" y="435" type="curve"/>
      <point x="1054" y="447" type="line"/>
      <point x="1018" y="642"/>
      <point x="855" y="730"/>
      <point x="609" y="730" type="curve" smooth="yes"/>
      <point x="521" y="730" type="line" smooth="yes"/>
      <point x="241" y="730"/>
      <point x="64" y="617"/>
      <point x="64" y="362" type="curve" smooth="yes"/>
      <point x="64" y="106"/>
      <point x="239" y="-10"/>
      <point x="519" y="-10" type="curve" smooth="yes"/>
      <point x="582" y="-10" type="line" smooth="yes"/>
      <point x="829" y="-10"/>
      <point x="986" y="83"/>
      <point x="1019" y="287" type="curve"/>
    </contour>
  </outline>
</glyph>
<glyph name="H" format="2">
  <advance width="984"/>
  <unicode hex="0048"/>
  <outline>
    <contour>
      <point x="92" y="0" type="line"/>
      <point x="202" y="0" type="line"/>
      <point x="202" y="720" type="line"/>
      <point x="92" y="720" type="line"/>
    </contour>
    <contour>
      <point x="140" y="321" type="line"/>
      <point x="848" y="321" type="line"/>
      <point x="848" y="401" type="line"/>
      <point x="140" y="401" type="line"/>
    </contour>
    <contour>
      <point x="782" y="0" type="line"/>
      <point x="892" y="0" type="line"/>
      <point x="892" y="720" type="line"/>
      <point x="782" y="720" type="line"/>
    </contour>
  </outline>
</glyph>
<glyph name="I" format="2">
  <advance width="774"/>
  <unicode hex="0049"/>
  <outline>
    <contour>
      <point x="335" y="0" type="line"/>
      <point x="445" y="0" type="line"/>
      <point x="445" y="720" type="line"/>
      <point x="335" y="720" type="line"/>
    </contour>
    <contour>
      <point x="92" y="637" type="line"/>
      <point x="682" y="637" type="line"/>
      <point x="682" y="720" type="line"/>
      <point x="92" y="720" type="line"/>
    </contour>
    <contour>
      <point x="92" y="0" type="line"/>
      <point x="682" y="0" type="line"/>
      <point x="682" y="83" type="line"/>
      <point x="92" y="83" type="line"/>
    </contour>
  </outline>
</glyph>
<glyph name="J" format="2">
  <advance width="746"/>
  <unicode hex="004A"/>
  <outline>
    <contour>
      <point x="234" y="-10" type="curve" smooth="yes"/>
      <point x="493" y="-10"/>
      <point x="655" y="97"/>
      <point x="655" y="332" type="curve" smooth="yes"/>
      <point x="655" y="720" type="line"/>
      <point x="543" y="720" type="line"/>
      <point x="543" y="340" type="line" smooth="yes"/>
      <point x="543" y="152"/>
      <point x="423" y="77"/>
      <point x="232" y="77" type="curve" smooth="yes"/>
      <point x="191" y="77"/>
      <point x="149" y="81"/>
      <point x="111" y="89" type="curve"/>
      <point x="92" y="3" type="line"/>
      <point x="135" y="-6"/>
      <point x="182" y="-10"/>
    </contour>
  </outline>
</glyph>
<glyph name="K" format="2">
  <advance width="907"/>
  <unicode hex="004B"/>
  <outline>
    <contour>
      <point x="92" y="0" type="line"/>
      <point x="202" y="0" type="line"/>
      <point x="202" y="720" type="line"/>
      <point x="92" y="720" type="line"/>
    </contour>
    <contour>
      <point x="158" y="308" type="line"/>
      <point x="251" y="308" type="line"/>
      <point x="697" y="0" type="line"/>
      <point x="852" y="0" type="line"/>
      <point x="331" y="377" type="line"/>
      <point x="262" y="363" type="line"/>
      <point x="158" y="363" type="line"/>
    </contour>
    <contour>
      <point x="230" y="345" type="line"/>
      <point x="304" y="314" type="line"/>
      <point x="849" y="720" type="line"/>
      <point x="714" y="720" type="line"/>
    </contour>
  </outline>
</glyph>
<glyph name="L" format="2">
  <advance width="815"/>
  <unicode hex="004C"/>
  <outline>
    <contour>
      <point x="92" y="0" type="line"/>
      <point x="202" y="0" type="line"/>
      <point x="202" y="720" type="line"/>
      <point x="92" y="720" type="line"/>
    </contour>
    <contour>
      <point x="126" y="0" type="line"/>
      <point x="781" y="0" type="line"/>
      <point x="781" y="83" type="line"/>
      <point x="126" y="83" type="line"/>
    </contour>
  </outline>
</glyph>
<glyph name="M" format="2">
  <advance width="1063"/>
  <unicode hex="004D"/>
  <outline>
    <contour>
      <point x="92" y="0" type="line"/>
      <point x="184" y="0" type="line"/>
      <point x="184" y="720" type="line"/>
      <point x="92" y="720" type="line"/>
    </contour>
    <contour>
      <point x="971" y="0" type="line"/>
      <point x="971" y="720" type="line"/>
      <point x="879" y="720" type="line"/>
      <point x="879" y="0" type="line"/>
    </contour>
    <contour>
      <point x="919" y="610" type="line"/>
      <point x="879" y="720" type="line"/>
      <point x="511" y="338" type="line"/>
      <point x="552" y="338" type="line"/>
      <point x="184" y="720" type="line"/>
      <point x="144" y="610" type="line"/>
      <point x="508" y="233" type="line"/>
      <point x="555" y="233" type="line"/>
    </contour>
  </outline>
</glyph>
<glyph name="N" format="2">
  <advance width="1003"/>
  <unicode hex="004E"/>
  <outline>
    <contour>
      <point x="92" y="0" type="line"/>
      <point x="182" y="0" type="line"/>
      <point x="182" y="720" type="line"/>
      <point x="92" y="720" type="line"/>
    </contour>
    <contour>
      <point x="141" y="622" type="line"/>
      <point x="821" y="0" type="line"/>
      <point x="863" y="99" type="line"/>
      <point x="182" y="720" type="line"/>
    </contour>
    <contour>
      <point x="821" y="0" type="line"/>
      <point x="911" y="0" type="line"/>
      <point x="911" y="720" type="line"/>
      <point x="821" y="720" type="line"/>
    </contour>
  </outline>
</glyph>
<glyph name="O" format="2">
  <advance width="1104"/>
  <unicode hex="004F"/>
  <outline>
    <contour>
      <point x="519" y="-10" type="curve" smooth="yes"/>
      <point x="585" y="-10" type="line" smooth="yes"/>
      <point x="864" y="-10"/>
      <point x="1041" y="106"/>
      <point x="1041" y="362" type="curve" smooth="yes"/>
      <point x="1041" y="617"/>
      <point x="864" y="730"/>
      <point x="585" y="730" type="curve" smooth="yes"/>
      <point x="519" y="730" type="line" smooth="yes"/>
      <point x="239" y="730"/>
      <point x="64" y="617"/>
      <point x="64" y="362" type="curve" smooth="yes"/>
      <point x="64" y="106"/>
      <point x="239" y="-10"/>
    </contour>
    <contour>
      <point x="527" y="72" type="line" smooth="yes"/>
      <point x="312" y="72"/>
      <point x="175" y="154"/>
      <point x="175" y="362" type="curve" smooth="yes"/>
      <point x="175" y="569"/>
      <point x="312" y="648"/>
      <point x="527" y="648" type="curve" smooth="yes"/>
      <point x="577" y="648" type="line" smooth="yes"/>
      <point x="793" y="648"/>
      <point x="929" y="569"/>
      <point x="929" y="362" type="curve" smooth="yes"/>
      <point x="929" y="154"/>
      <point x="793" y="72"/>
      <point x="577" y="72" type="curve" smooth="yes"/>
    </contour>
  </outline>
</glyph>
<glyph name="P" format="2">
  <advance width="924"/>
  <unicode hex="0050"/>
  <outline>
    <contour>
      <point x="92" y="0" type="line"/>
      <point x="202" y="0" type="line"/>
      <point x="202" y="720" type="line"/>
      <point x="92" y="720" type="line"/>
    </contour>
    <contour>
      <point x="158" y="633" type="line"/>
      <point x="512" y="633" type="line" smooth="yes"/>
      <point x="722" y="633"/>
      <point x="788" y="560"/>
      <point x="788" y="439" type="curve" smooth="yes"/>
      <point x="788" y="316"/>
      <point x="722" y="245"/>
      <point x="512" y="245" type="curve" smooth="yes"/>
      <point x="158" y="245" type="line"/>
      <point x="158" y="157" type="line"/>
      <point x="500" y="157" type="line" smooth="yes"/>
      <point x="816" y="157"/>
      <point x="890" y="276"/>
      <point x="890" y="439" type="curve" smooth="yes"/>
      <point x="890" y="602"/>
      <point x="816" y="720"/>
      <point x="501" y="720" type="curve" smooth="yes"/>
      <point x="158" y="720" type="line"/>
    </contour>
  </outline>
</glyph>
<glyph name="Q" format="2">
  <advance width="1104"/>
  <unicode hex="0051"/>
  <outline>
    <contour>
      <point x="579" y="-130" type="line"/>
      <point x="691" y="-130" type="line"/>
      <point x="586" y="44" type="line"/>
      <point x="484" y="30" type="line"/>
    </contour>
    <component base="O"/>
  </outline>
</glyph>
<glyph name="R" format="2">
  <advance width="961"/>
  <unicode hex="0052"/>
  <outline>
    <contour>
      <point x="756" y="0" type="line"/>
      <point x="884" y="0" type="line"/>
      <point x="777" y="111" type="line" smooth="yes"/>
      <point x="714" y="170"/>
      <point x="674" y="199"/>
      <point x="630" y="198" type="curve"/>
      <point x="563" y="198" type="line"/>
    </contour>
    <contour>
      <point x="92" y="0" type="line"/>
      <point x="202" y="0" type="line"/>
      <point x="202" y="720" type="line"/>
      <point x="92" y="720" type="line"/>
    </contour>
    <contour>
      <point x="158" y="633" type="line"/>
      <point x="518" y="633" type="line" smooth="yes"/>
      <point x="722" y="633"/>
      <point x="787" y="560"/>
      <point x="787" y="439" type="curve" smooth="yes"/>
      <point x="787" y="316"/>
      <point x="722" y="245"/>
      <point x="518" y="245" type="curve" smooth="yes"/>
      <point x="158" y="245" type="line"/>
      <point x="158" y="169" type="line"/>
      <point x="502" y="169" type="line" smooth="yes"/>
      <point x="816" y="169"/>
      <point x="891" y="286"/>
      <point x="891" y="445" type="curve" smooth="yes"/>
      <point x="891" y="604"/>
      <point x="815" y="720"/>
      <point x="501" y="720" type="curve" smooth="yes"/>
      <point x="158" y="720" type="line"/>
    </contour>
  </outline>
</glyph>
<glyph name="S" format="2">
  <advance width="972"/>
  <unicode hex="0053"/>
  <outline>
    <contour>
      <point x="894" y="195" type="curve" smooth="yes"/>
      <point x="894" y="327"/>
      <point x="814" y="377"/>
      <point x="573" y="400" type="curve" smooth="yes"/>
      <point x="431" y="414" type="line" smooth="yes"/>
      <point x="276" y="431"/>
      <point x="191" y="458"/>
      <point x="191" y="534" type="curve" smooth="yes"/>
      <point x="191" y="606"/>
      <point x="269" y="651"/>
      <point x="455" y="651" type="curve" smooth="yes"/>
      <point x="506" y="651" type="line" smooth="yes"/>
      <point x="661" y="651"/>
      <point x="771" y="623"/>
      <point x="857" y="585" type="curve"/>
      <point x="881" y="659" type="line"/>
      <point x="791" y="699"/>
      <point x="660" y="729"/>
      <point x="516" y="729" type="curve" smooth="yes"/>
      <point x="478" y="729" type="line" smooth="yes"/>
      <point x="214" y="729"/>
      <point x="95" y="657"/>
      <point x="96" y="526" type="curve" smooth="yes"/>
      <point x="96" y="404"/>
      <point x="184" y="350"/>
      <point x="416" y="327" type="curve" smooth="yes"/>
      <point x="555" y="313" type="line" smooth="yes"/>
      <point x="722" y="294"/>
      <point x="797" y="275"/>
      <point x="797" y="194" type="curve" smooth="yes"/>
      <point x="797" y="115"/>
      <point x="714" y="69"/>
      <point x="495" y="69" type="curve" smooth="yes"/>
      <point x="446" y="69" type="line" smooth="yes"/>
      <point x="304" y="69"/>
      <point x="187" y="97"/>
      <point x="96" y="136" type="curve"/>
      <point x="75" y="62" type="line"/>
      <point x="171" y="21"/>
      <point x="306" y="-9"/>
      <point x="436" y="-9" type="curve" smooth="yes"/>
      <point x="476" y="-9" type="line" smooth="yes"/>
      <point x="778" y="-9"/>
      <point x="895" y="70"/>
    </contour>
  </outline>
</glyph>
<glyph name="T" format="2">
  <advance width="958"/>
  <unicode hex="0054"/>
  <outline>
    <contour>
      <point x="424" y="0" type="line"/>
      <point x="534" y="0" type="line"/>
      <point x="534" y="720" type="line"/>
      <point x="424" y="720" type="line"/>
    </contour>
    <contour>
      <point x="34" y="633" type="line"/>
      <point x="924" y="633" type="line"/>
      <point x="924" y="720" type="line"/>
      <point x="34" y="720" type="line"/>
    </contour>
  </outline>
</glyph>
<glyph name="U" format="2">
  <advance width="1004"/>
  <unicode hex="0055"/>
  <outline>
    <contour>
      <point x="502" y="-10" type="curve" smooth="yes"/>
      <point x="753" y="-10"/>
      <point x="908" y="95"/>
      <point x="908" y="322" type="curve" smooth="yes"/>
      <point x="908" y="720" type="line"/>
      <point x="796" y="720" type="line"/>
      <point x="796" y="319" type="line" smooth="yes"/>
      <point x="796" y="146"/>
      <point x="683" y="76"/>
      <point x="502" y="76" type="curve" smooth="yes"/>
      <point x="321" y="76"/>
      <point x="208" y="146"/>
      <point x="208" y="319" type="curve" smooth="yes"/>
      <point x="208" y="720" type="line"/>
      <point x="96" y="720" type="line"/>
      <point x="96" y="322" type="line" smooth="yes"/>
      <point x="96" y="95"/>
      <point x="249" y="-10"/>
    </contour>
  </outline>
</glyph>
<glyph name="V" format="2">
  <advance width="980"/>
  <unicode hex="0056"/>
  <outline>
    <contour>
      <point x="949" y="720" type="line"/>
      <point x="853" y="720" type="line"/>
      <point x="490" y="0" type="line"/>
      <point x="576" y="0" type="line"/>
    </contour>
    <contour>
      <point x="158" y="720" type="line"/>
      <point x="31" y="720" type="line"/>
      <point x="406" y="0" type="line"/>
      <point x="526" y="0" type="line"/>
    </contour>
    <contour>
      <point x="559" y="82" type="line"/>
      <point x="434" y="82" type="line"/>
      <point x="434" y="0" type="line"/>
      <point x="559" y="0" type="line"/>
    </contour>
  </outline>
</glyph>
<glyph name="W" format="2">
  <advance width="1135"/>
  <unicode hex="0057"/>
  <outline>
    <contour>
      <point x="1103" y="720" type="line"/>
      <point x="1001" y="720" type="line"/>
      <point x="801" y="104" type="line"/>
      <point x="815" y="104" type="line"/>
      <point x="608" y="720" type="line"/>
      <point x="533" y="720" type="line"/>
      <point x="336" y="98" type="line"/>
      <point x="353" y="98" type="line"/>
      <point x="144" y="720" type="line"/>
      <point x="31" y="720" type="line"/>
      <point x="271" y="0" type="line"/>
      <point x="371" y="0" type="line"/>
      <point x="569" y="611" type="line"/>
      <point x="546" y="610" type="line"/>
      <point x="761" y="0" type="line"/>
      <point x="869" y="0" type="line"/>
    </contour>
  </outline>
</glyph>
<glyph name="X" format="2">
  <advance width="891"/>
  <unicode hex="0058"/>
  <outline>
    <contour>
      <point x="725" y="0" type="line"/>
      <point x="861" y="0" type="line"/>
      <point x="486" y="389" type="line"/>
      <point x="174" y="720" type="line"/>
      <point x="38" y="720" type="line"/>
      <point x="400" y="351" type="line"/>
    </contour>
    <contour>
      <point x="32" y="-1" type="line"/>
      <point x="145" y="0" type="line"/>
      <point x="448" y="340" type="line"/>
      <point x="490" y="342" type="line"/>
      <point x="853" y="720" type="line"/>
      <point x="738" y="720" type="line"/>
      <point x="437" y="393" type="line"/>
      <point x="394" y="390" type="line"/>
    </contour>
  </outline>
</glyph>
<glyph name="Y" format="2">
  <advance width="869"/>
  <unicode hex="0059"/>
  <outline>
    <contour>
      <point x="844" y="720" type="line"/>
      <point x="743" y="720" type="line"/>
      <point x="421" y="204" type="line"/>
      <point x="484" y="188" type="line"/>
    </contour>
    <contour>
      <point x="145" y="720" type="line"/>
      <point x="25" y="720" type="line"/>
      <point x="383" y="188" type="line"/>
      <point x="477" y="204" type="line"/>
    </contour>
    <contour>
      <point x="490" y="249" type="line"/>
      <point x="380" y="249" type="line"/>
      <point x="380" y="0" type="line"/>
      <point x="490" y="0" type="line"/>
    </contour>
  </outline>
</glyph>
<glyph name="Z" format="2">
  <advance width="995"/>
  <unicode hex="005A"/>
  <outline>
    <contour>
      <point x="92" y="83" type="line"/>
      <point x="214" y="54" type="line"/>
      <point x="903" y="637" type="line"/>
      <point x="782" y="666" type="line"/>
    </contour>
    <contour>
      <point x="92" y="637" type="line"/>
      <point x="903" y="637" type="line"/>
      <point x="903" y="720" type="line"/>
      <point x="92" y="720" type="line"/>
    </contour>
    <contour>
      <point x="92" y="0" type="line"/>
      <point x="903" y="0" type="line"/>
      <point x="903" y="83" type="line"/>
      <point x="92" y="83" type="line"/>
    </contour>
  </outline>
</glyph>
